<?xml version="1.0" encoding="utf-8" standalone="no"?>
<!DOCTYPE svg PUBLIC "-//W3C//DTD SVG 1.1//EN"
  "http://www.w3.org/Graphics/SVG/1.1/DTD/svg11.dtd">
<!-- Created with matplotlib (http://matplotlib.org/) -->
<svg height="576pt" version="1.1" viewBox="0 0 1152 576" width="1152pt" xmlns="http://www.w3.org/2000/svg" xmlns:xlink="http://www.w3.org/1999/xlink">
 <defs>
  <style type="text/css">
*{stroke-linecap:butt;stroke-linejoin:round;}
  </style>
 </defs>
 <g id="figure_1">
  <g id="patch_1">
   <path d="M 0 576 
L 1152 576 
L 1152 0 
L 0 0 
z
" style="fill:#ffffff;"/>
  </g>
  <g id="axes_1">
   <g id="patch_2">
    <path d="M 82.64 495.88 
L 1123.56 495.88 
L 1123.56 52.8 
L 82.64 52.8 
z
" style="fill:#ffffff;"/>
   </g>
   <g id="matplotlib.axis_1">
    <g id="xtick_1">
     <g id="line2d_1">
      <path clip-path="url(#pea12ce01f3)" d="M 99.429032 495.88 
L 99.429032 52.8 
" style="fill:none;stroke:#b0b0b0;stroke-linecap:square;stroke-width:0.8;"/>
     </g>
     <g id="line2d_2">
      <defs>
       <path d="M 0 0 
L 0 3.5 
" id="m5dd686764a" style="stroke:#000000;stroke-width:0.8;"/>
      </defs>
      <g>
       <use style="stroke:#000000;stroke-width:0.8;" x="99.429032" xlink:href="#m5dd686764a" y="495.88"/>
      </g>
     </g>
     <g id="text_1">
      <!-- 0 -->
      <defs>
       <path d="M 3.609375 32.71875 
Q 3.609375 44.046875 7.03125 52.21875 
Q 10.453125 60.40625 16.109375 64.40625 
Q 20.515625 67.578125 25.203125 67.578125 
Q 32.8125 67.578125 38.875 59.8125 
Q 46.4375 50.203125 46.4375 33.734375 
Q 46.4375 22.21875 43.109375 14.15625 
Q 39.796875 6.109375 34.640625 2.46875 
Q 29.5 -1.171875 24.703125 -1.171875 
Q 15.234375 -1.171875 8.9375 10.015625 
Q 3.609375 19.4375 3.609375 32.71875 
M 13.1875 31.5 
Q 13.1875 17.828125 16.546875 9.1875 
Q 19.34375 1.90625 24.859375 1.90625 
Q 27.484375 1.90625 30.3125 4.265625 
Q 33.15625 6.640625 34.625 12.203125 
Q 36.859375 20.609375 36.859375 35.890625 
Q 36.859375 47.21875 34.515625 54.78125 
Q 32.765625 60.40625 29.984375 62.75 
Q 27.984375 64.359375 25.140625 64.359375 
Q 21.828125 64.359375 19.234375 61.375 
Q 15.71875 57.328125 14.453125 48.625 
Q 13.1875 39.9375 13.1875 31.5 
" id="TimesNewRomanPSMT-30"/>
      </defs>
      <g transform="translate(93.429032 519.545)scale(0.24 -0.24)">
       <use xlink:href="#TimesNewRomanPSMT-30"/>
      </g>
     </g>
    </g>
    <g id="xtick_2">
     <g id="line2d_3">
      <path clip-path="url(#pea12ce01f3)" d="M 252.056598 495.88 
L 252.056598 52.8 
" style="fill:none;stroke:#b0b0b0;stroke-linecap:square;stroke-width:0.8;"/>
     </g>
     <g id="line2d_4">
      <g>
       <use style="stroke:#000000;stroke-width:0.8;" x="252.056598" xlink:href="#m5dd686764a" y="495.88"/>
      </g>
     </g>
     <g id="text_2">
      <!-- 10 -->
      <defs>
       <path d="M 11.71875 59.71875 
L 27.828125 67.578125 
L 29.4375 67.578125 
L 29.4375 11.671875 
Q 29.4375 6.109375 29.90625 4.734375 
Q 30.375 3.375 31.828125 2.640625 
Q 33.296875 1.90625 37.796875 1.8125 
L 37.796875 0 
L 12.890625 0 
L 12.890625 1.8125 
Q 17.578125 1.90625 18.9375 2.609375 
Q 20.3125 3.328125 20.84375 4.515625 
Q 21.390625 5.71875 21.390625 11.671875 
L 21.390625 47.40625 
Q 21.390625 54.640625 20.90625 56.6875 
Q 20.5625 58.25 19.65625 58.984375 
Q 18.75 59.71875 17.484375 59.71875 
Q 15.671875 59.71875 12.453125 58.203125 
z
" id="TimesNewRomanPSMT-31"/>
      </defs>
      <g transform="translate(240.056598 519.545)scale(0.24 -0.24)">
       <use xlink:href="#TimesNewRomanPSMT-31"/>
       <use x="50" xlink:href="#TimesNewRomanPSMT-30"/>
      </g>
     </g>
    </g>
    <g id="xtick_3">
     <g id="line2d_5">
      <path clip-path="url(#pea12ce01f3)" d="M 404.684164 495.88 
L 404.684164 52.8 
" style="fill:none;stroke:#b0b0b0;stroke-linecap:square;stroke-width:0.8;"/>
     </g>
     <g id="line2d_6">
      <g>
       <use style="stroke:#000000;stroke-width:0.8;" x="404.684164" xlink:href="#m5dd686764a" y="495.88"/>
      </g>
     </g>
     <g id="text_3">
      <!-- 20 -->
      <defs>
       <path d="M 45.84375 12.75 
L 41.21875 0 
L 2.15625 0 
L 2.15625 1.8125 
Q 19.390625 17.53125 26.421875 27.484375 
Q 33.453125 37.453125 33.453125 45.703125 
Q 33.453125 52 29.59375 56.046875 
Q 25.734375 60.109375 20.359375 60.109375 
Q 15.484375 60.109375 11.59375 57.25 
Q 7.71875 54.390625 5.859375 48.875 
L 4.046875 48.875 
Q 5.28125 57.90625 10.328125 62.734375 
Q 15.375 67.578125 22.953125 67.578125 
Q 31 67.578125 36.390625 62.40625 
Q 41.796875 57.234375 41.796875 50.203125 
Q 41.796875 45.171875 39.453125 40.140625 
Q 35.84375 32.234375 27.734375 23.390625 
Q 15.578125 10.109375 12.546875 7.375 
L 29.828125 7.375 
Q 35.109375 7.375 37.234375 7.765625 
Q 39.359375 8.15625 41.0625 9.34375 
Q 42.78125 10.546875 44.046875 12.75 
z
" id="TimesNewRomanPSMT-32"/>
      </defs>
      <g transform="translate(392.684164 519.545)scale(0.24 -0.24)">
       <use xlink:href="#TimesNewRomanPSMT-32"/>
       <use x="50" xlink:href="#TimesNewRomanPSMT-30"/>
      </g>
     </g>
    </g>
    <g id="xtick_4">
     <g id="line2d_7">
      <path clip-path="url(#pea12ce01f3)" d="M 557.31173 495.88 
L 557.31173 52.8 
" style="fill:none;stroke:#b0b0b0;stroke-linecap:square;stroke-width:0.8;"/>
     </g>
     <g id="line2d_8">
      <g>
       <use style="stroke:#000000;stroke-width:0.8;" x="557.31173" xlink:href="#m5dd686764a" y="495.88"/>
      </g>
     </g>
     <g id="text_4">
      <!-- 30 -->
      <defs>
       <path d="M 5.078125 53.609375 
Q 7.90625 60.296875 12.21875 63.9375 
Q 16.546875 67.578125 23 67.578125 
Q 30.953125 67.578125 35.203125 62.40625 
Q 38.421875 58.546875 38.421875 54.15625 
Q 38.421875 46.921875 29.34375 39.203125 
Q 35.453125 36.8125 38.578125 32.375 
Q 41.703125 27.9375 41.703125 21.921875 
Q 41.703125 13.328125 36.234375 7.03125 
Q 29.109375 -1.171875 15.578125 -1.171875 
Q 8.890625 -1.171875 6.46875 0.484375 
Q 4.046875 2.15625 4.046875 4.046875 
Q 4.046875 5.46875 5.1875 6.546875 
Q 6.34375 7.625 7.953125 7.625 
Q 9.1875 7.625 10.453125 7.234375 
Q 11.28125 6.984375 14.203125 5.4375 
Q 17.140625 3.90625 18.265625 3.609375 
Q 20.0625 3.078125 22.125 3.078125 
Q 27.09375 3.078125 30.78125 6.9375 
Q 34.46875 10.796875 34.46875 16.0625 
Q 34.46875 19.921875 32.765625 23.578125 
Q 31.5 26.3125 29.984375 27.734375 
Q 27.875 29.6875 24.21875 31.265625 
Q 20.5625 32.859375 16.75 32.859375 
L 15.1875 32.859375 
L 15.1875 34.328125 
Q 19.046875 34.8125 22.921875 37.109375 
Q 26.8125 39.40625 28.5625 42.625 
Q 30.328125 45.84375 30.328125 49.703125 
Q 30.328125 54.734375 27.171875 57.828125 
Q 24.03125 60.9375 19.34375 60.9375 
Q 11.765625 60.9375 6.6875 52.828125 
z
" id="TimesNewRomanPSMT-33"/>
      </defs>
      <g transform="translate(545.31173 519.545)scale(0.24 -0.24)">
       <use xlink:href="#TimesNewRomanPSMT-33"/>
       <use x="50" xlink:href="#TimesNewRomanPSMT-30"/>
      </g>
     </g>
    </g>
    <g id="xtick_5">
     <g id="line2d_9">
      <path clip-path="url(#pea12ce01f3)" d="M 709.939296 495.88 
L 709.939296 52.8 
" style="fill:none;stroke:#b0b0b0;stroke-linecap:square;stroke-width:0.8;"/>
     </g>
     <g id="line2d_10">
      <g>
       <use style="stroke:#000000;stroke-width:0.8;" x="709.939296" xlink:href="#m5dd686764a" y="495.88"/>
      </g>
     </g>
     <g id="text_5">
      <!-- 40 -->
      <defs>
       <path d="M 46.53125 24.421875 
L 46.53125 17.484375 
L 37.640625 17.484375 
L 37.640625 0 
L 29.59375 0 
L 29.59375 17.484375 
L 1.5625 17.484375 
L 1.5625 23.734375 
L 32.28125 67.578125 
L 37.640625 67.578125 
L 37.640625 24.421875 
z
M 29.59375 24.421875 
L 29.59375 57.28125 
L 6.34375 24.421875 
z
" id="TimesNewRomanPSMT-34"/>
      </defs>
      <g transform="translate(697.939296 519.545)scale(0.24 -0.24)">
       <use xlink:href="#TimesNewRomanPSMT-34"/>
       <use x="50" xlink:href="#TimesNewRomanPSMT-30"/>
      </g>
     </g>
    </g>
    <g id="xtick_6">
     <g id="line2d_11">
      <path clip-path="url(#pea12ce01f3)" d="M 862.566862 495.88 
L 862.566862 52.8 
" style="fill:none;stroke:#b0b0b0;stroke-linecap:square;stroke-width:0.8;"/>
     </g>
     <g id="line2d_12">
      <g>
       <use style="stroke:#000000;stroke-width:0.8;" x="862.566862" xlink:href="#m5dd686764a" y="495.88"/>
      </g>
     </g>
     <g id="text_6">
      <!-- 50 -->
      <defs>
       <path d="M 43.40625 66.21875 
L 39.59375 57.90625 
L 19.671875 57.90625 
L 15.328125 49.03125 
Q 28.265625 47.125 35.84375 39.40625 
Q 42.328125 32.765625 42.328125 23.78125 
Q 42.328125 18.5625 40.203125 14.109375 
Q 38.09375 9.671875 34.859375 6.546875 
Q 31.640625 3.421875 27.6875 1.515625 
Q 22.078125 -1.171875 16.15625 -1.171875 
Q 10.203125 -1.171875 7.484375 0.84375 
Q 4.78125 2.875 4.78125 5.328125 
Q 4.78125 6.6875 5.90625 7.734375 
Q 7.03125 8.796875 8.734375 8.796875 
Q 10.015625 8.796875 10.96875 8.40625 
Q 11.921875 8.015625 14.203125 6.390625 
Q 17.875 3.859375 21.625 3.859375 
Q 27.34375 3.859375 31.65625 8.171875 
Q 35.984375 12.5 35.984375 18.703125 
Q 35.984375 24.703125 32.125 29.90625 
Q 28.265625 35.109375 21.484375 37.9375 
Q 16.15625 40.140625 6.984375 40.484375 
L 19.671875 66.21875 
z
" id="TimesNewRomanPSMT-35"/>
      </defs>
      <g transform="translate(850.566862 519.545)scale(0.24 -0.24)">
       <use xlink:href="#TimesNewRomanPSMT-35"/>
       <use x="50" xlink:href="#TimesNewRomanPSMT-30"/>
      </g>
     </g>
    </g>
    <g id="xtick_7">
     <g id="line2d_13">
      <path clip-path="url(#pea12ce01f3)" d="M 1015.194428 495.88 
L 1015.194428 52.8 
" style="fill:none;stroke:#b0b0b0;stroke-linecap:square;stroke-width:0.8;"/>
     </g>
     <g id="line2d_14">
      <g>
       <use style="stroke:#000000;stroke-width:0.8;" x="1015.194428" xlink:href="#m5dd686764a" y="495.88"/>
      </g>
     </g>
     <g id="text_7">
      <!-- 60 -->
      <defs>
       <path d="M 44.828125 67.578125 
L 44.828125 65.765625 
Q 38.375 65.140625 34.296875 63.203125 
Q 30.21875 61.28125 26.234375 57.328125 
Q 22.265625 53.375 19.65625 48.515625 
Q 17.046875 43.65625 15.28125 36.96875 
Q 22.3125 41.796875 29.390625 41.796875 
Q 36.1875 41.796875 41.15625 36.328125 
Q 46.140625 30.859375 46.140625 22.265625 
Q 46.140625 13.96875 41.109375 7.125 
Q 35.0625 -1.171875 25.09375 -1.171875 
Q 18.3125 -1.171875 13.578125 3.328125 
Q 4.296875 12.0625 4.296875 25.984375 
Q 4.296875 34.859375 7.859375 42.859375 
Q 11.421875 50.875 18.03125 57.078125 
Q 24.65625 63.28125 30.703125 65.421875 
Q 36.765625 67.578125 42 67.578125 
z
M 14.453125 33.40625 
Q 13.578125 26.8125 13.578125 22.75 
Q 13.578125 18.0625 15.3125 12.5625 
Q 17.046875 7.078125 20.453125 3.859375 
Q 22.953125 1.5625 26.515625 1.5625 
Q 30.765625 1.5625 34.109375 5.5625 
Q 37.453125 9.578125 37.453125 17 
Q 37.453125 25.34375 34.125 31.4375 
Q 30.8125 37.546875 24.703125 37.546875 
Q 22.859375 37.546875 20.734375 36.765625 
Q 18.609375 35.984375 14.453125 33.40625 
" id="TimesNewRomanPSMT-36"/>
      </defs>
      <g transform="translate(1003.194428 519.545)scale(0.24 -0.24)">
       <use xlink:href="#TimesNewRomanPSMT-36"/>
       <use x="50" xlink:href="#TimesNewRomanPSMT-30"/>
      </g>
     </g>
    </g>
    <g id="text_8">
     <!-- generation size -->
     <defs>
      <path d="M 15.09375 16.3125 
Q 10.984375 18.3125 8.78125 21.890625 
Q 6.59375 25.484375 6.59375 29.828125 
Q 6.59375 36.46875 11.59375 41.25 
Q 16.609375 46.046875 24.421875 46.046875 
Q 30.8125 46.046875 35.5 42.921875 
L 44.96875 42.921875 
Q 47.078125 42.921875 47.40625 42.796875 
Q 47.75 42.671875 47.90625 42.390625 
Q 48.1875 41.9375 48.1875 40.828125 
Q 48.1875 39.546875 47.953125 39.0625 
Q 47.796875 38.8125 47.4375 38.671875 
Q 47.078125 38.53125 44.96875 38.53125 
L 39.15625 38.53125 
Q 41.890625 35.015625 41.890625 29.546875 
Q 41.890625 23.296875 37.109375 18.84375 
Q 32.328125 14.40625 24.265625 14.40625 
Q 20.953125 14.40625 17.484375 15.375 
Q 15.328125 13.53125 14.5625 12.140625 
Q 13.8125 10.75 13.8125 9.765625 
Q 13.8125 8.9375 14.625 8.15625 
Q 15.4375 7.375 17.78125 7.03125 
Q 19.140625 6.84375 24.609375 6.6875 
Q 34.671875 6.453125 37.640625 6 
Q 42.1875 5.375 44.890625 2.640625 
Q 47.609375 -0.09375 47.609375 -4.109375 
Q 47.609375 -9.625 42.4375 -14.453125 
Q 34.8125 -21.578125 22.5625 -21.578125 
Q 13.140625 -21.578125 6.640625 -17.328125 
Q 2.984375 -14.890625 2.984375 -12.25 
Q 2.984375 -11.078125 3.515625 -9.90625 
Q 4.34375 -8.109375 6.9375 -4.890625 
Q 7.28125 -4.4375 11.921875 0.390625 
Q 9.375 1.90625 8.328125 3.09375 
Q 7.28125 4.296875 7.28125 5.8125 
Q 7.28125 7.515625 8.671875 9.8125 
Q 10.0625 12.109375 15.09375 16.3125 
M 23.578125 43.703125 
Q 19.96875 43.703125 17.53125 40.8125 
Q 15.09375 37.9375 15.09375 31.984375 
Q 15.09375 24.265625 18.40625 20.015625 
Q 20.953125 16.796875 24.859375 16.796875 
Q 28.5625 16.796875 30.953125 19.578125 
Q 33.34375 22.359375 33.34375 28.328125 
Q 33.34375 36.078125 29.984375 40.484375 
Q 27.484375 43.703125 23.578125 43.703125 
M 14.59375 0 
Q 12.3125 -2.484375 11.140625 -4.625 
Q 9.96875 -6.78125 9.96875 -8.59375 
Q 9.96875 -10.9375 12.796875 -12.703125 
Q 17.671875 -15.71875 26.90625 -15.71875 
Q 35.6875 -15.71875 39.859375 -12.609375 
Q 44.046875 -9.515625 44.046875 -6 
Q 44.046875 -3.46875 41.546875 -2.390625 
Q 39.015625 -1.3125 31.5 -1.125 
Q 20.515625 -0.828125 14.59375 0 
" id="TimesNewRomanPSMT-67"/>
      <path d="M 10.640625 27.875 
Q 10.59375 17.921875 15.484375 12.25 
Q 20.359375 6.59375 26.953125 6.59375 
Q 31.34375 6.59375 34.59375 9 
Q 37.84375 11.421875 40.046875 17.28125 
L 41.546875 16.3125 
Q 40.53125 9.625 35.59375 4.125 
Q 30.671875 -1.375 23.25 -1.375 
Q 15.1875 -1.375 9.453125 4.90625 
Q 3.71875 11.1875 3.71875 21.78125 
Q 3.71875 33.25 9.59375 39.671875 
Q 15.484375 46.09375 24.359375 46.09375 
Q 31.890625 46.09375 36.71875 41.140625 
Q 41.546875 36.1875 41.546875 27.875 
z
M 10.640625 30.71875 
L 31.34375 30.71875 
Q 31.109375 35.015625 30.328125 36.765625 
Q 29.109375 39.5 26.6875 41.0625 
Q 24.265625 42.625 21.625 42.625 
Q 17.578125 42.625 14.375 39.46875 
Q 11.1875 36.328125 10.640625 30.71875 
" id="TimesNewRomanPSMT-65"/>
      <path d="M 16.15625 36.578125 
Q 24.03125 46.046875 31.15625 46.046875 
Q 34.8125 46.046875 37.453125 44.21875 
Q 40.09375 42.390625 41.65625 38.1875 
Q 42.71875 35.25 42.71875 29.203125 
L 42.71875 10.109375 
Q 42.71875 5.859375 43.40625 4.34375 
Q 43.953125 3.125 45.140625 2.4375 
Q 46.34375 1.765625 49.5625 1.765625 
L 49.5625 0 
L 27.4375 0 
L 27.4375 1.765625 
L 28.375 1.765625 
Q 31.5 1.765625 32.734375 2.703125 
Q 33.984375 3.65625 34.46875 5.515625 
Q 34.671875 6.25 34.671875 10.109375 
L 34.671875 28.421875 
Q 34.671875 34.515625 33.078125 37.28125 
Q 31.5 40.046875 27.734375 40.046875 
Q 21.921875 40.046875 16.15625 33.6875 
L 16.15625 10.109375 
Q 16.15625 5.5625 16.703125 4.5 
Q 17.390625 3.078125 18.578125 2.421875 
Q 19.78125 1.765625 23.4375 1.765625 
L 23.4375 0 
L 1.3125 0 
L 1.3125 1.765625 
L 2.296875 1.765625 
Q 5.71875 1.765625 6.90625 3.484375 
Q 8.109375 5.21875 8.109375 10.109375 
L 8.109375 26.703125 
Q 8.109375 34.765625 7.734375 36.515625 
Q 7.375 38.28125 6.609375 38.90625 
Q 5.859375 39.546875 4.59375 39.546875 
Q 3.21875 39.546875 1.3125 38.8125 
L 0.59375 40.578125 
L 14.0625 46.046875 
L 16.15625 46.046875 
z
" id="TimesNewRomanPSMT-6e"/>
      <path d="M 16.21875 46.046875 
L 16.21875 35.984375 
Q 21.828125 46.046875 27.734375 46.046875 
Q 30.421875 46.046875 32.171875 44.40625 
Q 33.9375 42.78125 33.9375 40.625 
Q 33.9375 38.71875 32.65625 37.390625 
Q 31.390625 36.078125 29.640625 36.078125 
Q 27.9375 36.078125 25.8125 37.765625 
Q 23.6875 39.453125 22.65625 39.453125 
Q 21.78125 39.453125 20.75 38.484375 
Q 18.5625 36.46875 16.21875 31.890625 
L 16.21875 10.453125 
Q 16.21875 6.734375 17.140625 4.828125 
Q 17.78125 3.515625 19.390625 2.640625 
Q 21 1.765625 24.03125 1.765625 
L 24.03125 0 
L 1.125 0 
L 1.125 1.765625 
Q 4.546875 1.765625 6.203125 2.828125 
Q 7.421875 3.609375 7.90625 5.328125 
Q 8.15625 6.15625 8.15625 10.0625 
L 8.15625 27.390625 
Q 8.15625 35.203125 7.828125 36.6875 
Q 7.515625 38.1875 6.65625 38.859375 
Q 5.8125 39.546875 4.546875 39.546875 
Q 3.03125 39.546875 1.125 38.8125 
L 0.640625 40.578125 
L 14.15625 46.046875 
z
" id="TimesNewRomanPSMT-72"/>
      <path d="M 28.46875 6.453125 
Q 21.578125 1.125 19.828125 0.296875 
Q 17.1875 -0.921875 14.203125 -0.921875 
Q 9.578125 -0.921875 6.5625 2.25 
Q 3.5625 5.421875 3.5625 10.59375 
Q 3.5625 13.875 5.03125 16.265625 
Q 7.03125 19.578125 11.984375 22.5 
Q 16.9375 25.4375 28.46875 29.640625 
L 28.46875 31.390625 
Q 28.46875 38.09375 26.34375 40.578125 
Q 24.21875 43.0625 20.171875 43.0625 
Q 17.09375 43.0625 15.28125 41.40625 
Q 13.421875 39.75 13.421875 37.59375 
L 13.53125 34.765625 
Q 13.53125 32.515625 12.375 31.296875 
Q 11.234375 30.078125 9.375 30.078125 
Q 7.5625 30.078125 6.421875 31.34375 
Q 5.28125 32.625 5.28125 34.8125 
Q 5.28125 39.015625 9.578125 42.53125 
Q 13.875 46.046875 21.625 46.046875 
Q 27.59375 46.046875 31.390625 44.046875 
Q 34.28125 42.53125 35.640625 39.3125 
Q 36.53125 37.203125 36.53125 30.71875 
L 36.53125 15.53125 
Q 36.53125 9.125 36.765625 7.6875 
Q 37.015625 6.25 37.578125 5.765625 
Q 38.140625 5.28125 38.875 5.28125 
Q 39.65625 5.28125 40.234375 5.609375 
Q 41.265625 6.25 44.1875 9.1875 
L 44.1875 6.453125 
Q 38.71875 -0.875 33.734375 -0.875 
Q 31.34375 -0.875 29.921875 0.78125 
Q 28.515625 2.4375 28.46875 6.453125 
M 28.46875 9.625 
L 28.46875 26.65625 
Q 21.09375 23.734375 18.953125 22.515625 
Q 15.09375 20.359375 13.421875 18.015625 
Q 11.765625 15.671875 11.765625 12.890625 
Q 11.765625 9.375 13.859375 7.046875 
Q 15.96875 4.734375 18.703125 4.734375 
Q 22.40625 4.734375 28.46875 9.625 
" id="TimesNewRomanPSMT-61"/>
      <path d="M 16.109375 59.421875 
L 16.109375 44.734375 
L 26.5625 44.734375 
L 26.5625 41.3125 
L 16.109375 41.3125 
L 16.109375 12.3125 
Q 16.109375 7.953125 17.359375 6.4375 
Q 18.609375 4.9375 20.5625 4.9375 
Q 22.171875 4.9375 23.6875 5.9375 
Q 25.203125 6.9375 26.03125 8.890625 
L 27.9375 8.890625 
Q 26.21875 4.109375 23.09375 1.6875 
Q 19.96875 -0.734375 16.65625 -0.734375 
Q 14.40625 -0.734375 12.25 0.515625 
Q 10.109375 1.765625 9.078125 4.078125 
Q 8.0625 6.390625 8.0625 11.234375 
L 8.0625 41.3125 
L 0.984375 41.3125 
L 0.984375 42.921875 
Q 3.65625 44 6.46875 46.5625 
Q 9.28125 49.125 11.46875 52.640625 
Q 12.59375 54.5 14.59375 59.421875 
z
" id="TimesNewRomanPSMT-74"/>
      <path d="M 14.5 69.4375 
Q 16.546875 69.4375 17.984375 67.984375 
Q 19.4375 66.546875 19.4375 64.5 
Q 19.4375 62.453125 17.984375 60.984375 
Q 16.546875 59.515625 14.5 59.515625 
Q 12.453125 59.515625 10.984375 60.984375 
Q 9.515625 62.453125 9.515625 64.5 
Q 9.515625 66.546875 10.953125 67.984375 
Q 12.40625 69.4375 14.5 69.4375 
M 18.5625 46.046875 
L 18.5625 10.109375 
Q 18.5625 5.90625 19.171875 4.515625 
Q 19.78125 3.125 20.96875 2.4375 
Q 22.171875 1.765625 25.34375 1.765625 
L 25.34375 0 
L 3.609375 0 
L 3.609375 1.765625 
Q 6.890625 1.765625 8 2.390625 
Q 9.125 3.03125 9.78125 4.484375 
Q 10.453125 5.953125 10.453125 10.109375 
L 10.453125 27.34375 
Q 10.453125 34.625 10.015625 36.765625 
Q 9.671875 38.328125 8.9375 38.9375 
Q 8.203125 39.546875 6.9375 39.546875 
Q 5.5625 39.546875 3.609375 38.8125 
L 2.9375 40.578125 
L 16.40625 46.046875 
z
" id="TimesNewRomanPSMT-69"/>
      <path d="M 25 46.046875 
Q 35.15625 46.046875 41.3125 38.328125 
Q 46.53125 31.734375 46.53125 23.1875 
Q 46.53125 17.1875 43.640625 11.03125 
Q 40.765625 4.890625 35.71875 1.75 
Q 30.671875 -1.375 24.46875 -1.375 
Q 14.359375 -1.375 8.40625 6.6875 
Q 3.375 13.484375 3.375 21.921875 
Q 3.375 28.078125 6.421875 34.15625 
Q 9.46875 40.234375 14.453125 43.140625 
Q 19.4375 46.046875 25 46.046875 
M 23.484375 42.875 
Q 20.90625 42.875 18.28125 41.328125 
Q 15.671875 39.796875 14.0625 35.9375 
Q 12.453125 32.078125 12.453125 26.03125 
Q 12.453125 16.265625 16.328125 9.171875 
Q 20.21875 2.09375 26.5625 2.09375 
Q 31.296875 2.09375 34.375 6 
Q 37.453125 9.90625 37.453125 19.4375 
Q 37.453125 31.34375 32.328125 38.1875 
Q 28.859375 42.875 23.484375 42.875 
" id="TimesNewRomanPSMT-6f"/>
      <path id="TimesNewRomanPSMT-20"/>
      <path d="M 32.03125 46.046875 
L 32.03125 30.8125 
L 30.421875 30.8125 
Q 28.5625 37.984375 25.65625 40.578125 
Q 22.75 43.171875 18.265625 43.171875 
Q 14.84375 43.171875 12.734375 41.359375 
Q 10.640625 39.546875 10.640625 37.359375 
Q 10.640625 34.625 12.203125 32.671875 
Q 13.71875 30.671875 18.359375 28.421875 
L 25.484375 24.953125 
Q 35.40625 20.125 35.40625 12.203125 
Q 35.40625 6.109375 30.78125 2.359375 
Q 26.171875 -1.375 20.453125 -1.375 
Q 16.359375 -1.375 11.078125 0.09375 
Q 9.46875 0.59375 8.453125 0.59375 
Q 7.328125 0.59375 6.6875 -0.6875 
L 5.078125 -0.6875 
L 5.078125 15.28125 
L 6.6875 15.28125 
Q 8.0625 8.453125 11.90625 4.984375 
Q 15.765625 1.515625 20.5625 1.515625 
Q 23.921875 1.515625 26.046875 3.484375 
Q 28.171875 5.46875 28.171875 8.25 
Q 28.171875 11.625 25.796875 13.921875 
Q 23.4375 16.21875 16.359375 19.734375 
Q 9.28125 23.25 7.078125 26.078125 
Q 4.890625 28.859375 4.890625 33.109375 
Q 4.890625 38.625 8.671875 42.328125 
Q 12.453125 46.046875 18.453125 46.046875 
Q 21.09375 46.046875 24.859375 44.921875 
Q 27.34375 44.1875 28.171875 44.1875 
Q 28.953125 44.1875 29.390625 44.53125 
Q 29.828125 44.875 30.421875 46.046875 
z
" id="TimesNewRomanPSMT-73"/>
      <path d="M 42 13.71875 
L 41.453125 0 
L 2 0 
L 2 1.765625 
L 31.6875 41.3125 
L 17.046875 41.3125 
Q 12.3125 41.3125 10.84375 40.703125 
Q 9.375 40.09375 8.453125 38.375 
Q 7.125 35.9375 6.9375 32.328125 
L 4.984375 32.328125 
L 5.28125 44.734375 
L 42.78125 44.734375 
L 42.78125 42.921875 
L 12.796875 3.265625 
L 29.109375 3.265625 
Q 34.234375 3.265625 36.0625 4.125 
Q 37.890625 4.984375 39.015625 7.125 
Q 39.796875 8.6875 40.328125 13.71875 
z
" id="TimesNewRomanPSMT-7a"/>
     </defs>
     <g transform="translate(530.798125 545.34375)scale(0.24 -0.24)">
      <use xlink:href="#TimesNewRomanPSMT-67"/>
      <use x="50" xlink:href="#TimesNewRomanPSMT-65"/>
      <use x="94.384766" xlink:href="#TimesNewRomanPSMT-6e"/>
      <use x="144.384766" xlink:href="#TimesNewRomanPSMT-65"/>
      <use x="188.769531" xlink:href="#TimesNewRomanPSMT-72"/>
      <use x="222.070312" xlink:href="#TimesNewRomanPSMT-61"/>
      <use x="266.455078" xlink:href="#TimesNewRomanPSMT-74"/>
      <use x="294.238281" xlink:href="#TimesNewRomanPSMT-69"/>
      <use x="322.021484" xlink:href="#TimesNewRomanPSMT-6f"/>
      <use x="372.021484" xlink:href="#TimesNewRomanPSMT-6e"/>
      <use x="422.021484" xlink:href="#TimesNewRomanPSMT-20"/>
      <use x="447.021484" xlink:href="#TimesNewRomanPSMT-73"/>
      <use x="485.9375" xlink:href="#TimesNewRomanPSMT-69"/>
      <use x="513.720703" xlink:href="#TimesNewRomanPSMT-7a"/>
      <use x="558.105469" xlink:href="#TimesNewRomanPSMT-65"/>
     </g>
    </g>
   </g>
   <g id="matplotlib.axis_2">
    <g id="ytick_1">
     <g id="line2d_15">
      <path clip-path="url(#pea12ce01f3)" d="M 82.64 470.148039 
L 1123.56 470.148039 
" style="fill:none;stroke:#b0b0b0;stroke-linecap:square;stroke-width:0.8;"/>
     </g>
     <g id="line2d_16">
      <defs>
       <path d="M 0 0 
L -3.5 0 
" id="m7fd7dd5660" style="stroke:#000000;stroke-width:0.8;"/>
      </defs>
      <g>
       <use style="stroke:#000000;stroke-width:0.8;" x="82.64" xlink:href="#m7fd7dd5660" y="470.148039"/>
      </g>
     </g>
     <g id="text_9">
      <!-- 5 -->
      <g transform="translate(63.64 478.480539)scale(0.24 -0.24)">
       <use xlink:href="#TimesNewRomanPSMT-35"/>
      </g>
     </g>
    </g>
    <g id="ytick_2">
     <g id="line2d_17">
      <path clip-path="url(#pea12ce01f3)" d="M 82.64 403.620299 
L 1123.56 403.620299 
" style="fill:none;stroke:#b0b0b0;stroke-linecap:square;stroke-width:0.8;"/>
     </g>
     <g id="line2d_18">
      <g>
       <use style="stroke:#000000;stroke-width:0.8;" x="82.64" xlink:href="#m7fd7dd5660" y="403.620299"/>
      </g>
     </g>
     <g id="text_10">
      <!-- 10 -->
      <g transform="translate(51.64 411.952799)scale(0.24 -0.24)">
       <use xlink:href="#TimesNewRomanPSMT-31"/>
       <use x="50" xlink:href="#TimesNewRomanPSMT-30"/>
      </g>
     </g>
    </g>
    <g id="ytick_3">
     <g id="line2d_19">
      <path clip-path="url(#pea12ce01f3)" d="M 82.64 337.092559 
L 1123.56 337.092559 
" style="fill:none;stroke:#b0b0b0;stroke-linecap:square;stroke-width:0.8;"/>
     </g>
     <g id="line2d_20">
      <g>
       <use style="stroke:#000000;stroke-width:0.8;" x="82.64" xlink:href="#m7fd7dd5660" y="337.092559"/>
      </g>
     </g>
     <g id="text_11">
      <!-- 15 -->
      <g transform="translate(51.64 345.425059)scale(0.24 -0.24)">
       <use xlink:href="#TimesNewRomanPSMT-31"/>
       <use x="50" xlink:href="#TimesNewRomanPSMT-35"/>
      </g>
     </g>
    </g>
    <g id="ytick_4">
     <g id="line2d_21">
      <path clip-path="url(#pea12ce01f3)" d="M 82.64 270.564819 
L 1123.56 270.564819 
" style="fill:none;stroke:#b0b0b0;stroke-linecap:square;stroke-width:0.8;"/>
     </g>
     <g id="line2d_22">
      <g>
       <use style="stroke:#000000;stroke-width:0.8;" x="82.64" xlink:href="#m7fd7dd5660" y="270.564819"/>
      </g>
     </g>
     <g id="text_12">
      <!-- 20 -->
      <g transform="translate(51.64 278.897319)scale(0.24 -0.24)">
       <use xlink:href="#TimesNewRomanPSMT-32"/>
       <use x="50" xlink:href="#TimesNewRomanPSMT-30"/>
      </g>
     </g>
    </g>
    <g id="ytick_5">
     <g id="line2d_23">
      <path clip-path="url(#pea12ce01f3)" d="M 82.64 204.037079 
L 1123.56 204.037079 
" style="fill:none;stroke:#b0b0b0;stroke-linecap:square;stroke-width:0.8;"/>
     </g>
     <g id="line2d_24">
      <g>
       <use style="stroke:#000000;stroke-width:0.8;" x="82.64" xlink:href="#m7fd7dd5660" y="204.037079"/>
      </g>
     </g>
     <g id="text_13">
      <!-- 25 -->
      <g transform="translate(51.64 212.369579)scale(0.24 -0.24)">
       <use xlink:href="#TimesNewRomanPSMT-32"/>
       <use x="50" xlink:href="#TimesNewRomanPSMT-35"/>
      </g>
     </g>
    </g>
    <g id="ytick_6">
     <g id="line2d_25">
      <path clip-path="url(#pea12ce01f3)" d="M 82.64 137.509338 
L 1123.56 137.509338 
" style="fill:none;stroke:#b0b0b0;stroke-linecap:square;stroke-width:0.8;"/>
     </g>
     <g id="line2d_26">
      <g>
       <use style="stroke:#000000;stroke-width:0.8;" x="82.64" xlink:href="#m7fd7dd5660" y="137.509338"/>
      </g>
     </g>
     <g id="text_14">
      <!-- 30 -->
      <g transform="translate(51.64 145.841838)scale(0.24 -0.24)">
       <use xlink:href="#TimesNewRomanPSMT-33"/>
       <use x="50" xlink:href="#TimesNewRomanPSMT-30"/>
      </g>
     </g>
    </g>
    <g id="ytick_7">
     <g id="line2d_27">
      <path clip-path="url(#pea12ce01f3)" d="M 82.64 70.981598 
L 1123.56 70.981598 
" style="fill:none;stroke:#b0b0b0;stroke-linecap:square;stroke-width:0.8;"/>
     </g>
     <g id="line2d_28">
      <g>
       <use style="stroke:#000000;stroke-width:0.8;" x="82.64" xlink:href="#m7fd7dd5660" y="70.981598"/>
      </g>
     </g>
     <g id="text_15">
      <!-- 35 -->
      <g transform="translate(51.64 79.314098)scale(0.24 -0.24)">
       <use xlink:href="#TimesNewRomanPSMT-33"/>
       <use x="50" xlink:href="#TimesNewRomanPSMT-35"/>
      </g>
     </g>
    </g>
    <g id="text_16">
     <!-- Encoding rate [MB/s] -->
     <defs>
      <path d="M 20.90625 62.59375 
L 20.90625 36.421875 
L 35.453125 36.421875 
Q 41.109375 36.421875 43.015625 38.140625 
Q 45.5625 40.375 45.84375 46.046875 
L 47.65625 46.046875 
L 47.65625 23 
L 45.84375 23 
Q 45.171875 27.828125 44.484375 29.203125 
Q 43.609375 30.90625 41.59375 31.875 
Q 39.59375 32.859375 35.453125 32.859375 
L 20.90625 32.859375 
L 20.90625 11.03125 
Q 20.90625 6.640625 21.296875 5.6875 
Q 21.6875 4.734375 22.65625 4.171875 
Q 23.640625 3.609375 26.375 3.609375 
L 37.59375 3.609375 
Q 43.21875 3.609375 45.75 4.390625 
Q 48.296875 5.171875 50.640625 7.46875 
Q 53.65625 10.5 56.84375 16.609375 
L 58.796875 16.609375 
L 53.078125 0 
L 2.046875 0 
L 2.046875 1.8125 
L 4.390625 1.8125 
Q 6.734375 1.8125 8.84375 2.9375 
Q 10.40625 3.71875 10.96875 5.28125 
Q 11.53125 6.84375 11.53125 11.671875 
L 11.53125 54.6875 
Q 11.53125 60.984375 10.25 62.453125 
Q 8.5 64.40625 4.390625 64.40625 
L 2.046875 64.40625 
L 2.046875 66.21875 
L 53.078125 66.21875 
L 53.8125 51.703125 
L 51.90625 51.703125 
Q 50.875 56.9375 49.625 58.890625 
Q 48.390625 60.84375 45.953125 61.859375 
Q 44 62.59375 39.0625 62.59375 
z
" id="TimesNewRomanPSMT-45"/>
      <path d="M 41.109375 17 
Q 39.3125 8.15625 34.03125 3.390625 
Q 28.765625 -1.375 22.359375 -1.375 
Q 14.75 -1.375 9.078125 5.015625 
Q 3.421875 11.421875 3.421875 22.3125 
Q 3.421875 32.859375 9.6875 39.453125 
Q 15.96875 46.046875 24.75 46.046875 
Q 31.34375 46.046875 35.59375 42.546875 
Q 39.84375 39.0625 39.84375 35.296875 
Q 39.84375 33.453125 38.640625 32.296875 
Q 37.453125 31.15625 35.296875 31.15625 
Q 32.421875 31.15625 30.953125 33.015625 
Q 30.125 34.03125 29.859375 36.90625 
Q 29.59375 39.796875 27.875 41.3125 
Q 26.171875 42.78125 23.140625 42.78125 
Q 18.265625 42.78125 15.28125 39.15625 
Q 11.328125 34.375 11.328125 26.515625 
Q 11.328125 18.5 15.25 12.375 
Q 19.1875 6.25 25.875 6.25 
Q 30.671875 6.25 34.46875 9.515625 
Q 37.15625 11.765625 39.703125 17.671875 
z
" id="TimesNewRomanPSMT-63"/>
      <path d="M 34.71875 5.03125 
Q 31.453125 1.609375 28.328125 0.109375 
Q 25.203125 -1.375 21.578125 -1.375 
Q 14.265625 -1.375 8.796875 4.75 
Q 3.328125 10.890625 3.328125 20.515625 
Q 3.328125 30.125 9.375 38.109375 
Q 15.4375 46.09375 24.953125 46.09375 
Q 30.859375 46.09375 34.71875 42.328125 
L 34.71875 50.59375 
Q 34.71875 58.25 34.34375 60 
Q 33.984375 61.765625 33.203125 62.390625 
Q 32.421875 63.03125 31.25 63.03125 
Q 29.984375 63.03125 27.875 62.25 
L 27.25 63.96875 
L 40.578125 69.4375 
L 42.78125 69.4375 
L 42.78125 17.71875 
Q 42.78125 9.859375 43.140625 8.125 
Q 43.5 6.390625 44.3125 5.703125 
Q 45.125 5.03125 46.1875 5.03125 
Q 47.515625 5.03125 49.703125 5.859375 
L 50.25 4.15625 
L 36.96875 -1.375 
L 34.71875 -1.375 
z
M 34.71875 8.453125 
L 34.71875 31.5 
Q 34.421875 34.8125 32.953125 37.546875 
Q 31.5 40.28125 29.078125 41.671875 
Q 26.65625 43.0625 24.359375 43.0625 
Q 20.0625 43.0625 16.703125 39.203125 
Q 12.25 34.125 12.25 24.359375 
Q 12.25 14.5 16.546875 9.25 
Q 20.84375 4 26.125 4 
Q 30.5625 4 34.71875 8.453125 
" id="TimesNewRomanPSMT-64"/>
      <path d="M 29.6875 -19.828125 
L 8.203125 -19.828125 
L 8.203125 67.71875 
L 29.6875 67.71875 
L 29.6875 63.875 
L 15.53125 63.875 
L 15.53125 -16.015625 
L 29.6875 -16.015625 
z
" id="TimesNewRomanPSMT-5b"/>
      <path d="M 40.921875 0 
L 15.328125 55.71875 
L 15.328125 11.46875 
Q 15.328125 5.375 16.65625 3.859375 
Q 18.453125 1.8125 22.359375 1.8125 
L 24.703125 1.8125 
L 24.703125 0 
L 1.65625 0 
L 1.65625 1.8125 
L 4 1.8125 
Q 8.203125 1.8125 9.96875 4.34375 
Q 11.03125 5.90625 11.03125 11.46875 
L 11.03125 54.734375 
Q 11.03125 59.125 10.0625 61.078125 
Q 9.375 62.5 7.546875 63.453125 
Q 5.71875 64.40625 1.65625 64.40625 
L 1.65625 66.21875 
L 20.40625 66.21875 
L 44.4375 14.40625 
L 68.0625 66.21875 
L 86.8125 66.21875 
L 86.8125 64.40625 
L 84.515625 64.40625 
Q 80.28125 64.40625 78.515625 61.859375 
Q 77.4375 60.296875 77.4375 54.734375 
L 77.4375 11.46875 
Q 77.4375 5.375 78.8125 3.859375 
Q 80.609375 1.8125 84.515625 1.8125 
L 86.8125 1.8125 
L 86.8125 0 
L 58.6875 0 
L 58.6875 1.8125 
L 61.03125 1.8125 
Q 65.28125 1.8125 67 4.34375 
Q 68.0625 5.90625 68.0625 11.46875 
L 68.0625 55.71875 
L 42.53125 0 
z
" id="TimesNewRomanPSMT-4d"/>
      <path d="M 46.1875 33.796875 
Q 53.078125 32.328125 56.5 29.109375 
Q 61.234375 24.609375 61.234375 18.109375 
Q 61.234375 13.1875 58.109375 8.671875 
Q 54.984375 4.15625 49.53125 2.078125 
Q 44.09375 0 32.90625 0 
L 1.65625 0 
L 1.65625 1.8125 
L 4.15625 1.8125 
Q 8.296875 1.8125 10.109375 4.4375 
Q 11.234375 6.15625 11.234375 11.71875 
L 11.234375 54.5 
Q 11.234375 60.640625 9.8125 62.25 
Q 7.90625 64.40625 4.15625 64.40625 
L 1.65625 64.40625 
L 1.65625 66.21875 
L 30.28125 66.21875 
Q 38.28125 66.21875 43.109375 65.046875 
Q 50.4375 63.28125 54.296875 58.8125 
Q 58.15625 54.34375 58.15625 48.53125 
Q 58.15625 43.5625 55.125 39.625 
Q 52.09375 35.6875 46.1875 33.796875 
M 20.609375 36.421875 
Q 22.40625 36.078125 24.71875 35.90625 
Q 27.046875 35.75 29.828125 35.75 
Q 36.96875 35.75 40.546875 37.28125 
Q 44.140625 38.8125 46.046875 41.984375 
Q 47.953125 45.171875 47.953125 48.921875 
Q 47.953125 54.734375 43.21875 58.828125 
Q 38.484375 62.9375 29.390625 62.9375 
Q 24.515625 62.9375 20.609375 61.859375 
z
M 20.609375 4.78125 
Q 26.265625 3.46875 31.78125 3.46875 
Q 40.625 3.46875 45.265625 7.4375 
Q 49.90625 11.421875 49.90625 17.28125 
Q 49.90625 21.140625 47.796875 24.703125 
Q 45.703125 28.265625 40.96875 30.3125 
Q 36.234375 32.375 29.25 32.375 
Q 26.21875 32.375 24.0625 32.265625 
Q 21.921875 32.171875 20.609375 31.9375 
z
" id="TimesNewRomanPSMT-42"/>
      <path d="M 28.03125 69.4375 
L 4.046875 -1.375 
L 0.140625 -1.375 
L 24.125 69.4375 
z
" id="TimesNewRomanPSMT-2f"/>
      <path d="M 3.65625 67.71875 
L 25.140625 67.71875 
L 25.140625 -19.875 
L 3.65625 -19.875 
L 3.65625 -16.015625 
L 17.828125 -16.015625 
L 17.828125 63.875 
L 3.65625 63.875 
z
" id="TimesNewRomanPSMT-5d"/>
     </defs>
     <g transform="translate(42.46125 378.98375)rotate(-90)scale(0.24 -0.24)">
      <use xlink:href="#TimesNewRomanPSMT-45"/>
      <use x="61.083984" xlink:href="#TimesNewRomanPSMT-6e"/>
      <use x="111.083984" xlink:href="#TimesNewRomanPSMT-63"/>
      <use x="155.46875" xlink:href="#TimesNewRomanPSMT-6f"/>
      <use x="205.46875" xlink:href="#TimesNewRomanPSMT-64"/>
      <use x="255.46875" xlink:href="#TimesNewRomanPSMT-69"/>
      <use x="283.251953" xlink:href="#TimesNewRomanPSMT-6e"/>
      <use x="333.251953" xlink:href="#TimesNewRomanPSMT-67"/>
      <use x="383.251953" xlink:href="#TimesNewRomanPSMT-20"/>
      <use x="408.251953" xlink:href="#TimesNewRomanPSMT-72"/>
      <use x="441.552734" xlink:href="#TimesNewRomanPSMT-61"/>
      <use x="485.9375" xlink:href="#TimesNewRomanPSMT-74"/>
      <use x="513.720703" xlink:href="#TimesNewRomanPSMT-65"/>
      <use x="558.105469" xlink:href="#TimesNewRomanPSMT-20"/>
      <use x="583.105469" xlink:href="#TimesNewRomanPSMT-5b"/>
      <use x="616.40625" xlink:href="#TimesNewRomanPSMT-4d"/>
      <use x="705.322266" xlink:href="#TimesNewRomanPSMT-42"/>
      <use x="772.021484" xlink:href="#TimesNewRomanPSMT-2f"/>
      <use x="799.804688" xlink:href="#TimesNewRomanPSMT-73"/>
      <use x="838.720703" xlink:href="#TimesNewRomanPSMT-5d"/>
     </g>
    </g>
   </g>
   <g id="LineCollection_1">
    <path clip-path="url(#pea12ce01f3)" d="M 129.954545 242.679174 
L 129.954545 105.057373 
" style="fill:none;stroke:#9999ff;stroke-width:2;"/>
    <path clip-path="url(#pea12ce01f3)" d="M 160.480059 338.178687 
L 160.480059 195.491796 
" style="fill:none;stroke:#9999ff;stroke-width:2;"/>
    <path clip-path="url(#pea12ce01f3)" d="M 221.531085 344.198457 
L 221.531085 279.344443 
" style="fill:none;stroke:#9999ff;stroke-width:2;"/>
    <path clip-path="url(#pea12ce01f3)" d="M 343.633138 378.53287 
L 343.633138 339.368076 
" style="fill:none;stroke:#9999ff;stroke-width:2;"/>
    <path clip-path="url(#pea12ce01f3)" d="M 587.837243 429.650767 
L 587.837243 415.34368 
" style="fill:none;stroke:#9999ff;stroke-width:2;"/>
    <path clip-path="url(#pea12ce01f3)" d="M 1076.245455 474.312652 
L 1076.245455 467.644668 
" style="fill:none;stroke:#9999ff;stroke-width:2;"/>
   </g>
   <g id="LineCollection_2">
    <path clip-path="url(#pea12ce01f3)" d="M 129.954545 220.410237 
L 129.954545 76.362052 
" style="fill:none;stroke:#9999ff;stroke-width:2;"/>
    <path clip-path="url(#pea12ce01f3)" d="M 160.480059 271.304001 
L 160.480059 175.335983 
" style="fill:none;stroke:#9999ff;stroke-width:2;"/>
    <path clip-path="url(#pea12ce01f3)" d="M 221.531085 314.736104 
L 221.531085 244.667621 
" style="fill:none;stroke:#9999ff;stroke-width:2;"/>
    <path clip-path="url(#pea12ce01f3)" d="M 343.633138 370.95077 
L 343.633138 339.453347 
" style="fill:none;stroke:#9999ff;stroke-width:2;"/>
    <path clip-path="url(#pea12ce01f3)" d="M 587.837243 429.589772 
L 587.837243 415.4361 
" style="fill:none;stroke:#9999ff;stroke-width:2;"/>
    <path clip-path="url(#pea12ce01f3)" d="M 1076.245455 474.310985 
L 1076.245455 467.579308 
" style="fill:none;stroke:#9999ff;stroke-width:2;"/>
   </g>
   <g id="LineCollection_3">
    <path clip-path="url(#pea12ce01f3)" d="M 129.954545 216.663202 
L 129.954545 72.94 
" style="fill:none;stroke:#9999ff;stroke-width:2;"/>
    <path clip-path="url(#pea12ce01f3)" d="M 160.480059 254.358561 
L 160.480059 147.493846 
" style="fill:none;stroke:#9999ff;stroke-width:2;"/>
    <path clip-path="url(#pea12ce01f3)" d="M 221.531085 314.41235 
L 221.531085 240.834577 
" style="fill:none;stroke:#9999ff;stroke-width:2;"/>
    <path clip-path="url(#pea12ce01f3)" d="M 343.633138 370.230259 
L 343.633138 337.842796 
" style="fill:none;stroke:#9999ff;stroke-width:2;"/>
    <path clip-path="url(#pea12ce01f3)" d="M 587.837243 427.694613 
L 587.837243 414.125118 
" style="fill:none;stroke:#9999ff;stroke-width:2;"/>
    <path clip-path="url(#pea12ce01f3)" d="M 1076.245455 475.74 
L 1076.245455 466.756455 
" style="fill:none;stroke:#9999ff;stroke-width:2;"/>
   </g>
   <g id="line2d_29">
    <defs>
     <path d="M 3 0 
L -3 -0 
" id="ma7e58fd21f" style="stroke:#9999ff;"/>
    </defs>
    <g clip-path="url(#pea12ce01f3)">
     <use style="fill:#9999ff;stroke:#9999ff;" x="129.954545" xlink:href="#ma7e58fd21f" y="242.679174"/>
     <use style="fill:#9999ff;stroke:#9999ff;" x="160.480059" xlink:href="#ma7e58fd21f" y="338.178687"/>
     <use style="fill:#9999ff;stroke:#9999ff;" x="221.531085" xlink:href="#ma7e58fd21f" y="344.198457"/>
     <use style="fill:#9999ff;stroke:#9999ff;" x="343.633138" xlink:href="#ma7e58fd21f" y="378.53287"/>
     <use style="fill:#9999ff;stroke:#9999ff;" x="587.837243" xlink:href="#ma7e58fd21f" y="429.650767"/>
     <use style="fill:#9999ff;stroke:#9999ff;" x="1076.245455" xlink:href="#ma7e58fd21f" y="474.312652"/>
    </g>
   </g>
   <g id="line2d_30">
    <g clip-path="url(#pea12ce01f3)">
     <use style="fill:#9999ff;stroke:#9999ff;" x="129.954545" xlink:href="#ma7e58fd21f" y="105.057373"/>
     <use style="fill:#9999ff;stroke:#9999ff;" x="160.480059" xlink:href="#ma7e58fd21f" y="195.491796"/>
     <use style="fill:#9999ff;stroke:#9999ff;" x="221.531085" xlink:href="#ma7e58fd21f" y="279.344443"/>
     <use style="fill:#9999ff;stroke:#9999ff;" x="343.633138" xlink:href="#ma7e58fd21f" y="339.368076"/>
     <use style="fill:#9999ff;stroke:#9999ff;" x="587.837243" xlink:href="#ma7e58fd21f" y="415.34368"/>
     <use style="fill:#9999ff;stroke:#9999ff;" x="1076.245455" xlink:href="#ma7e58fd21f" y="467.644668"/>
    </g>
   </g>
   <g id="line2d_31">
    <g clip-path="url(#pea12ce01f3)">
     <use style="fill:#9999ff;stroke:#9999ff;" x="129.954545" xlink:href="#ma7e58fd21f" y="220.410237"/>
     <use style="fill:#9999ff;stroke:#9999ff;" x="160.480059" xlink:href="#ma7e58fd21f" y="271.304001"/>
     <use style="fill:#9999ff;stroke:#9999ff;" x="221.531085" xlink:href="#ma7e58fd21f" y="314.736104"/>
     <use style="fill:#9999ff;stroke:#9999ff;" x="343.633138" xlink:href="#ma7e58fd21f" y="370.95077"/>
     <use style="fill:#9999ff;stroke:#9999ff;" x="587.837243" xlink:href="#ma7e58fd21f" y="429.589772"/>
     <use style="fill:#9999ff;stroke:#9999ff;" x="1076.245455" xlink:href="#ma7e58fd21f" y="474.310985"/>
    </g>
   </g>
   <g id="line2d_32">
    <g clip-path="url(#pea12ce01f3)">
     <use style="fill:#9999ff;stroke:#9999ff;" x="129.954545" xlink:href="#ma7e58fd21f" y="76.362052"/>
     <use style="fill:#9999ff;stroke:#9999ff;" x="160.480059" xlink:href="#ma7e58fd21f" y="175.335983"/>
     <use style="fill:#9999ff;stroke:#9999ff;" x="221.531085" xlink:href="#ma7e58fd21f" y="244.667621"/>
     <use style="fill:#9999ff;stroke:#9999ff;" x="343.633138" xlink:href="#ma7e58fd21f" y="339.453347"/>
     <use style="fill:#9999ff;stroke:#9999ff;" x="587.837243" xlink:href="#ma7e58fd21f" y="415.4361"/>
     <use style="fill:#9999ff;stroke:#9999ff;" x="1076.245455" xlink:href="#ma7e58fd21f" y="467.579308"/>
    </g>
   </g>
   <g id="line2d_33">
    <g clip-path="url(#pea12ce01f3)">
     <use style="fill:#9999ff;stroke:#9999ff;" x="129.954545" xlink:href="#ma7e58fd21f" y="216.663202"/>
     <use style="fill:#9999ff;stroke:#9999ff;" x="160.480059" xlink:href="#ma7e58fd21f" y="254.358561"/>
     <use style="fill:#9999ff;stroke:#9999ff;" x="221.531085" xlink:href="#ma7e58fd21f" y="314.41235"/>
     <use style="fill:#9999ff;stroke:#9999ff;" x="343.633138" xlink:href="#ma7e58fd21f" y="370.230259"/>
     <use style="fill:#9999ff;stroke:#9999ff;" x="587.837243" xlink:href="#ma7e58fd21f" y="427.694613"/>
     <use style="fill:#9999ff;stroke:#9999ff;" x="1076.245455" xlink:href="#ma7e58fd21f" y="475.74"/>
    </g>
   </g>
   <g id="line2d_34">
    <g clip-path="url(#pea12ce01f3)">
     <use style="fill:#9999ff;stroke:#9999ff;" x="129.954545" xlink:href="#ma7e58fd21f" y="72.94"/>
     <use style="fill:#9999ff;stroke:#9999ff;" x="160.480059" xlink:href="#ma7e58fd21f" y="147.493846"/>
     <use style="fill:#9999ff;stroke:#9999ff;" x="221.531085" xlink:href="#ma7e58fd21f" y="240.834577"/>
     <use style="fill:#9999ff;stroke:#9999ff;" x="343.633138" xlink:href="#ma7e58fd21f" y="337.842796"/>
     <use style="fill:#9999ff;stroke:#9999ff;" x="587.837243" xlink:href="#ma7e58fd21f" y="414.125118"/>
     <use style="fill:#9999ff;stroke:#9999ff;" x="1076.245455" xlink:href="#ma7e58fd21f" y="466.756455"/>
    </g>
   </g>
   <g id="line2d_35">
    <path clip-path="url(#pea12ce01f3)" d="M 129.954545 173.868273 
L 160.480059 266.835241 
L 221.531085 311.77145 
L 343.633138 358.950473 
L 587.837243 422.497224 
L 1076.245455 470.97866 
" style="fill:none;stroke:#0000ff;stroke-dasharray:4.4,4.4;stroke-dashoffset:0;stroke-width:4;"/>
    <defs>
     <path d="M -4 4 
L 4 4 
L 4 -4 
L -4 -4 
z
" id="m003e7ab0db" style="stroke:#0000ff;stroke-linejoin:miter;"/>
    </defs>
    <g clip-path="url(#pea12ce01f3)">
     <use style="fill:#0000ff;stroke:#0000ff;stroke-linejoin:miter;" x="129.954545" xlink:href="#m003e7ab0db" y="173.868273"/>
     <use style="fill:#0000ff;stroke:#0000ff;stroke-linejoin:miter;" x="160.480059" xlink:href="#m003e7ab0db" y="266.835241"/>
     <use style="fill:#0000ff;stroke:#0000ff;stroke-linejoin:miter;" x="221.531085" xlink:href="#m003e7ab0db" y="311.77145"/>
     <use style="fill:#0000ff;stroke:#0000ff;stroke-linejoin:miter;" x="343.633138" xlink:href="#m003e7ab0db" y="358.950473"/>
     <use style="fill:#0000ff;stroke:#0000ff;stroke-linejoin:miter;" x="587.837243" xlink:href="#m003e7ab0db" y="422.497224"/>
     <use style="fill:#0000ff;stroke:#0000ff;stroke-linejoin:miter;" x="1076.245455" xlink:href="#m003e7ab0db" y="470.97866"/>
    </g>
   </g>
   <g id="line2d_36">
    <path clip-path="url(#pea12ce01f3)" d="M 129.954545 148.386145 
L 160.480059 223.319992 
L 221.531085 279.701862 
L 343.633138 355.202059 
L 587.837243 422.512936 
L 1076.245455 470.945146 
" style="fill:none;stroke:#0000ff;stroke-dasharray:19.2,4.8,3.2,4.8;stroke-dashoffset:0;stroke-width:4;"/>
    <g clip-path="url(#pea12ce01f3)">
     <use style="fill:#0000ff;stroke:#0000ff;stroke-linejoin:miter;" x="129.954545" xlink:href="#m003e7ab0db" y="148.386145"/>
     <use style="fill:#0000ff;stroke:#0000ff;stroke-linejoin:miter;" x="160.480059" xlink:href="#m003e7ab0db" y="223.319992"/>
     <use style="fill:#0000ff;stroke:#0000ff;stroke-linejoin:miter;" x="221.531085" xlink:href="#m003e7ab0db" y="279.701862"/>
     <use style="fill:#0000ff;stroke:#0000ff;stroke-linejoin:miter;" x="343.633138" xlink:href="#m003e7ab0db" y="355.202059"/>
     <use style="fill:#0000ff;stroke:#0000ff;stroke-linejoin:miter;" x="587.837243" xlink:href="#m003e7ab0db" y="422.512936"/>
     <use style="fill:#0000ff;stroke:#0000ff;stroke-linejoin:miter;" x="1076.245455" xlink:href="#m003e7ab0db" y="470.945146"/>
    </g>
   </g>
   <g id="line2d_37">
    <path clip-path="url(#pea12ce01f3)" d="M 129.954545 144.801601 
L 160.480059 200.926204 
L 221.531085 277.623463 
L 343.633138 354.036528 
L 587.837243 420.909865 
L 1076.245455 471.248227 
" style="fill:none;stroke:#0000ff;stroke-linecap:square;stroke-width:4;"/>
    <g clip-path="url(#pea12ce01f3)">
     <use style="fill:#0000ff;stroke:#0000ff;stroke-linejoin:miter;" x="129.954545" xlink:href="#m003e7ab0db" y="144.801601"/>
     <use style="fill:#0000ff;stroke:#0000ff;stroke-linejoin:miter;" x="160.480059" xlink:href="#m003e7ab0db" y="200.926204"/>
     <use style="fill:#0000ff;stroke:#0000ff;stroke-linejoin:miter;" x="221.531085" xlink:href="#m003e7ab0db" y="277.623463"/>
     <use style="fill:#0000ff;stroke:#0000ff;stroke-linejoin:miter;" x="343.633138" xlink:href="#m003e7ab0db" y="354.036528"/>
     <use style="fill:#0000ff;stroke:#0000ff;stroke-linejoin:miter;" x="587.837243" xlink:href="#m003e7ab0db" y="420.909865"/>
     <use style="fill:#0000ff;stroke:#0000ff;stroke-linejoin:miter;" x="1076.245455" xlink:href="#m003e7ab0db" y="471.248227"/>
    </g>
   </g>
   <g id="patch_3">
    <path d="M 82.64 495.88 
L 82.64 52.8 
" style="fill:none;stroke:#000000;stroke-linecap:square;stroke-linejoin:miter;stroke-width:0.8;"/>
   </g>
   <g id="patch_4">
    <path d="M 1123.56 495.88 
L 1123.56 52.8 
" style="fill:none;stroke:#000000;stroke-linecap:square;stroke-linejoin:miter;stroke-width:0.8;"/>
   </g>
   <g id="patch_5">
    <path d="M 82.64 495.88 
L 1123.56 495.88 
" style="fill:none;stroke:#000000;stroke-linecap:square;stroke-linejoin:miter;stroke-width:0.8;"/>
   </g>
   <g id="patch_6">
    <path d="M 82.64 52.8 
L 1123.56 52.8 
" style="fill:none;stroke:#000000;stroke-linecap:square;stroke-linejoin:miter;stroke-width:0.8;"/>
   </g>
   <g id="text_17">
    <!-- Encoding rate with binary16, symbols size: 1024 byte -->
    <defs>
     <path d="M 0.640625 44.734375 
L 19.390625 44.734375 
L 19.390625 42.921875 
Q 16.796875 42.71875 15.984375 41.984375 
Q 15.1875 41.265625 15.1875 39.890625 
Q 15.1875 38.375 16.015625 36.234375 
L 25.59375 10.5 
L 35.203125 31.453125 
L 32.671875 38.03125 
Q 31.5 40.96875 29.59375 42.09375 
Q 28.515625 42.78125 25.59375 42.921875 
L 25.59375 44.734375 
L 46.875 44.734375 
L 46.875 42.921875 
Q 43.359375 42.78125 41.890625 41.65625 
Q 40.921875 40.875 40.921875 39.15625 
Q 40.921875 38.1875 41.3125 37.15625 
L 51.46875 11.46875 
L 60.890625 36.234375 
Q 61.859375 38.875 61.859375 40.4375 
Q 61.859375 41.359375 60.90625 42.09375 
Q 59.96875 42.828125 57.171875 42.921875 
L 57.171875 44.734375 
L 71.296875 44.734375 
L 71.296875 42.921875 
Q 67.046875 42.28125 65.046875 37.15625 
L 50.09375 -1.375 
L 48.09375 -1.375 
L 36.921875 27.203125 
L 23.875 -1.375 
L 22.078125 -1.375 
L 7.71875 36.234375 
Q 6.296875 39.796875 4.921875 41.03125 
Q 3.5625 42.28125 0.640625 42.921875 
z
" id="TimesNewRomanPSMT-77"/>
     <path d="M 16.265625 69.4375 
L 16.265625 36.71875 
Q 21.6875 42.671875 24.859375 44.359375 
Q 28.03125 46.046875 31.203125 46.046875 
Q 35.015625 46.046875 37.75 43.9375 
Q 40.484375 41.84375 41.796875 37.359375 
Q 42.71875 34.234375 42.71875 25.921875 
L 42.71875 10.109375 
Q 42.71875 5.859375 43.40625 4.296875 
Q 43.890625 3.125 45.0625 2.4375 
Q 46.234375 1.765625 49.359375 1.765625 
L 49.359375 0 
L 27.390625 0 
L 27.390625 1.765625 
L 28.421875 1.765625 
Q 31.546875 1.765625 32.765625 2.703125 
Q 33.984375 3.65625 34.46875 5.515625 
Q 34.625 6.296875 34.625 10.109375 
L 34.625 25.921875 
Q 34.625 33.25 33.859375 35.546875 
Q 33.109375 37.84375 31.4375 38.984375 
Q 29.78125 40.140625 27.4375 40.140625 
Q 25.046875 40.140625 22.453125 38.859375 
Q 19.875 37.59375 16.265625 33.734375 
L 16.265625 10.109375 
Q 16.265625 5.515625 16.765625 4.390625 
Q 17.28125 3.265625 18.671875 2.515625 
Q 20.0625 1.765625 23.484375 1.765625 
L 23.484375 0 
L 1.3125 0 
L 1.3125 1.765625 
Q 4.296875 1.765625 6 2.6875 
Q 6.984375 3.171875 7.5625 4.53125 
Q 8.15625 5.90625 8.15625 10.109375 
L 8.15625 50.59375 
Q 8.15625 58.25 7.78125 60 
Q 7.421875 61.765625 6.65625 62.390625 
Q 5.90625 63.03125 4.640625 63.03125 
Q 3.609375 63.03125 1.3125 62.25 
L 0.640625 63.96875 
L 14.015625 69.4375 
z
" id="TimesNewRomanPSMT-68"/>
     <path d="M 15.375 37.015625 
Q 21.875 46.046875 29.390625 46.046875 
Q 36.28125 46.046875 41.40625 40.15625 
Q 46.53125 34.28125 46.53125 24.078125 
Q 46.53125 12.15625 38.625 4.890625 
Q 31.84375 -1.375 23.484375 -1.375 
Q 19.578125 -1.375 15.546875 0.046875 
Q 11.53125 1.46875 7.328125 4.296875 
L 7.328125 50.640625 
Q 7.328125 58.25 6.953125 60 
Q 6.59375 61.765625 5.8125 62.390625 
Q 5.03125 63.03125 3.859375 63.03125 
Q 2.484375 63.03125 0.4375 62.25 
L -0.25 63.96875 
L 13.1875 69.4375 
L 15.375 69.4375 
z
M 15.375 33.890625 
L 15.375 7.125 
Q 17.875 4.6875 20.53125 3.4375 
Q 23.1875 2.203125 25.984375 2.203125 
Q 30.421875 2.203125 34.25 7.078125 
Q 38.09375 11.96875 38.09375 21.296875 
Q 38.09375 29.890625 34.25 34.5 
Q 30.421875 39.109375 25.53125 39.109375 
Q 22.953125 39.109375 20.359375 37.796875 
Q 18.40625 36.8125 15.375 33.890625 
" id="TimesNewRomanPSMT-62"/>
     <path d="M 0.59375 44.734375 
L 21.4375 44.734375 
L 21.4375 42.921875 
L 20.40625 42.921875 
Q 18.21875 42.921875 17.109375 41.96875 
Q 16.015625 41.015625 16.015625 39.59375 
Q 16.015625 37.703125 17.625 34.328125 
L 28.515625 11.765625 
L 38.53125 36.46875 
Q 39.359375 38.484375 39.359375 40.4375 
Q 39.359375 41.3125 39.015625 41.75 
Q 38.625 42.28125 37.796875 42.59375 
Q 36.96875 42.921875 34.859375 42.921875 
L 34.859375 44.734375 
L 49.421875 44.734375 
L 49.421875 42.921875 
Q 47.609375 42.71875 46.625 42.125 
Q 45.65625 41.546875 44.484375 39.9375 
Q 44.046875 39.265625 42.828125 36.1875 
L 24.609375 -8.453125 
Q 21.96875 -14.9375 17.6875 -18.25 
Q 13.421875 -21.578125 9.46875 -21.578125 
Q 6.59375 -21.578125 4.734375 -19.921875 
Q 2.875 -18.265625 2.875 -16.109375 
Q 2.875 -14.0625 4.21875 -12.8125 
Q 5.5625 -11.578125 7.90625 -11.578125 
Q 9.515625 -11.578125 12.3125 -12.640625 
Q 14.265625 -13.375 14.75 -13.375 
Q 16.21875 -13.375 17.9375 -11.859375 
Q 19.671875 -10.359375 21.4375 -6 
L 24.609375 1.765625 
L 8.546875 35.5 
Q 7.8125 37.015625 6.203125 39.265625 
Q 4.984375 40.96875 4.203125 41.546875 
Q 3.078125 42.328125 0.59375 42.921875 
z
" id="TimesNewRomanPSMT-79"/>
     <path d="M 5.375 -16.65625 
L 5.375 -14.5 
Q 10.40625 -12.84375 13.15625 -9.34375 
Q 15.921875 -5.859375 15.921875 -1.953125 
Q 15.921875 -1.03125 15.484375 -0.390625 
Q 15.140625 0.046875 14.796875 0.046875 
Q 14.265625 0.046875 12.453125 -0.921875 
Q 11.578125 -1.375 10.59375 -1.375 
Q 8.203125 -1.375 6.78125 0.046875 
Q 5.375 1.46875 5.375 3.953125 
Q 5.375 6.34375 7.203125 8.046875 
Q 9.03125 9.765625 11.671875 9.765625 
Q 14.890625 9.765625 17.40625 6.953125 
Q 19.921875 4.15625 19.921875 -0.484375 
Q 19.921875 -5.515625 16.421875 -9.828125 
Q 12.9375 -14.15625 5.375 -16.65625 
" id="TimesNewRomanPSMT-2c"/>
     <path d="M 16.40625 36.53125 
Q 21.296875 41.40625 22.171875 42.140625 
Q 24.359375 44 26.890625 45.015625 
Q 29.4375 46.046875 31.9375 46.046875 
Q 36.140625 46.046875 39.15625 43.59375 
Q 42.1875 41.15625 43.21875 36.53125 
Q 48.25 42.390625 51.703125 44.21875 
Q 55.171875 46.046875 58.84375 46.046875 
Q 62.40625 46.046875 65.15625 44.21875 
Q 67.921875 42.390625 69.53125 38.234375 
Q 70.609375 35.40625 70.609375 29.34375 
L 70.609375 10.109375 
Q 70.609375 5.90625 71.234375 4.34375 
Q 71.734375 3.265625 73.046875 2.515625 
Q 74.359375 1.765625 77.34375 1.765625 
L 77.34375 0 
L 55.28125 0 
L 55.28125 1.765625 
L 56.203125 1.765625 
Q 59.078125 1.765625 60.6875 2.875 
Q 61.8125 3.65625 62.3125 5.375 
Q 62.5 6.203125 62.5 10.109375 
L 62.5 29.34375 
Q 62.5 34.8125 61.1875 37.0625 
Q 59.28125 40.1875 55.078125 40.1875 
Q 52.484375 40.1875 49.875 38.890625 
Q 47.265625 37.59375 43.5625 34.078125 
L 43.453125 33.546875 
L 43.5625 31.453125 
L 43.5625 10.109375 
Q 43.5625 5.515625 44.0625 4.390625 
Q 44.578125 3.265625 45.984375 2.515625 
Q 47.40625 1.765625 50.828125 1.765625 
L 50.828125 0 
L 28.21875 0 
L 28.21875 1.765625 
Q 31.9375 1.765625 33.328125 2.640625 
Q 34.71875 3.515625 35.25 5.28125 
Q 35.5 6.109375 35.5 10.109375 
L 35.5 29.34375 
Q 35.5 34.8125 33.890625 37.203125 
Q 31.734375 40.328125 27.875 40.328125 
Q 25.25 40.328125 22.65625 38.921875 
Q 18.609375 36.765625 16.40625 34.078125 
L 16.40625 10.109375 
Q 16.40625 5.71875 17.015625 4.390625 
Q 17.625 3.078125 18.8125 2.421875 
Q 20.015625 1.765625 23.6875 1.765625 
L 23.6875 0 
L 1.5625 0 
L 1.5625 1.765625 
Q 4.640625 1.765625 5.859375 2.421875 
Q 7.078125 3.078125 7.703125 4.515625 
Q 8.34375 5.953125 8.34375 10.109375 
L 8.34375 27.203125 
Q 8.34375 34.578125 7.90625 36.71875 
Q 7.5625 38.328125 6.828125 38.9375 
Q 6.109375 39.546875 4.828125 39.546875 
Q 3.46875 39.546875 1.5625 38.8125 
L 0.828125 40.578125 
L 14.3125 46.046875 
L 16.40625 46.046875 
z
" id="TimesNewRomanPSMT-6d"/>
     <path d="M 18.5 69.4375 
L 18.5 10.109375 
Q 18.5 5.90625 19.109375 4.53125 
Q 19.734375 3.171875 21 2.46875 
Q 22.265625 1.765625 25.734375 1.765625 
L 25.734375 0 
L 3.8125 0 
L 3.8125 1.765625 
Q 6.890625 1.765625 8 2.390625 
Q 9.125 3.03125 9.765625 4.484375 
Q 10.40625 5.953125 10.40625 10.109375 
L 10.40625 50.734375 
Q 10.40625 58.296875 10.0625 60.03125 
Q 9.71875 61.765625 8.953125 62.390625 
Q 8.203125 63.03125 7.03125 63.03125 
Q 5.765625 63.03125 3.8125 62.25 
L 2.984375 63.96875 
L 16.3125 69.4375 
z
" id="TimesNewRomanPSMT-6c"/>
     <path d="M 14.109375 46.09375 
Q 16.359375 46.09375 17.9375 44.5 
Q 19.53125 42.921875 19.53125 40.671875 
Q 19.53125 38.421875 17.9375 36.828125 
Q 16.359375 35.25 14.109375 35.25 
Q 11.859375 35.25 10.265625 36.828125 
Q 8.6875 38.421875 8.6875 40.671875 
Q 8.6875 42.921875 10.265625 44.5 
Q 11.859375 46.09375 14.109375 46.09375 
M 14.015625 9.515625 
Q 16.3125 9.515625 17.890625 7.90625 
Q 19.484375 6.296875 19.484375 4.046875 
Q 19.484375 1.8125 17.875 0.21875 
Q 16.265625 -1.375 14.015625 -1.375 
Q 11.765625 -1.375 10.171875 0.21875 
Q 8.59375 1.8125 8.59375 4.046875 
Q 8.59375 6.296875 10.171875 7.90625 
Q 11.765625 9.515625 14.015625 9.515625 
" id="TimesNewRomanPSMT-3a"/>
    </defs>
    <g transform="translate(292.75075 46.8)scale(0.288 -0.288)">
     <use xlink:href="#TimesNewRomanPSMT-45"/>
     <use x="61.083984" xlink:href="#TimesNewRomanPSMT-6e"/>
     <use x="111.083984" xlink:href="#TimesNewRomanPSMT-63"/>
     <use x="155.46875" xlink:href="#TimesNewRomanPSMT-6f"/>
     <use x="205.46875" xlink:href="#TimesNewRomanPSMT-64"/>
     <use x="255.46875" xlink:href="#TimesNewRomanPSMT-69"/>
     <use x="283.251953" xlink:href="#TimesNewRomanPSMT-6e"/>
     <use x="333.251953" xlink:href="#TimesNewRomanPSMT-67"/>
     <use x="383.251953" xlink:href="#TimesNewRomanPSMT-20"/>
     <use x="408.251953" xlink:href="#TimesNewRomanPSMT-72"/>
     <use x="441.552734" xlink:href="#TimesNewRomanPSMT-61"/>
     <use x="485.9375" xlink:href="#TimesNewRomanPSMT-74"/>
     <use x="513.720703" xlink:href="#TimesNewRomanPSMT-65"/>
     <use x="558.105469" xlink:href="#TimesNewRomanPSMT-20"/>
     <use x="583.105469" xlink:href="#TimesNewRomanPSMT-77"/>
     <use x="655.322266" xlink:href="#TimesNewRomanPSMT-69"/>
     <use x="683.105469" xlink:href="#TimesNewRomanPSMT-74"/>
     <use x="710.888672" xlink:href="#TimesNewRomanPSMT-68"/>
     <use x="760.888672" xlink:href="#TimesNewRomanPSMT-20"/>
     <use x="785.888672" xlink:href="#TimesNewRomanPSMT-62"/>
     <use x="835.888672" xlink:href="#TimesNewRomanPSMT-69"/>
     <use x="863.671875" xlink:href="#TimesNewRomanPSMT-6e"/>
     <use x="913.671875" xlink:href="#TimesNewRomanPSMT-61"/>
     <use x="958.056641" xlink:href="#TimesNewRomanPSMT-72"/>
     <use x="991.357422" xlink:href="#TimesNewRomanPSMT-79"/>
     <use x="1041.357422" xlink:href="#TimesNewRomanPSMT-31"/>
     <use x="1091.357422" xlink:href="#TimesNewRomanPSMT-36"/>
     <use x="1141.357422" xlink:href="#TimesNewRomanPSMT-2c"/>
     <use x="1166.357422" xlink:href="#TimesNewRomanPSMT-20"/>
     <use x="1191.357422" xlink:href="#TimesNewRomanPSMT-73"/>
     <use x="1230.273438" xlink:href="#TimesNewRomanPSMT-79"/>
     <use x="1280.273438" xlink:href="#TimesNewRomanPSMT-6d"/>
     <use x="1358.056641" xlink:href="#TimesNewRomanPSMT-62"/>
     <use x="1408.056641" xlink:href="#TimesNewRomanPSMT-6f"/>
     <use x="1458.056641" xlink:href="#TimesNewRomanPSMT-6c"/>
     <use x="1485.839844" xlink:href="#TimesNewRomanPSMT-73"/>
     <use x="1524.755859" xlink:href="#TimesNewRomanPSMT-20"/>
     <use x="1549.755859" xlink:href="#TimesNewRomanPSMT-73"/>
     <use x="1588.671875" xlink:href="#TimesNewRomanPSMT-69"/>
     <use x="1616.455078" xlink:href="#TimesNewRomanPSMT-7a"/>
     <use x="1660.839844" xlink:href="#TimesNewRomanPSMT-65"/>
     <use x="1705.224609" xlink:href="#TimesNewRomanPSMT-3a"/>
     <use x="1733.007812" xlink:href="#TimesNewRomanPSMT-20"/>
     <use x="1758.007812" xlink:href="#TimesNewRomanPSMT-31"/>
     <use x="1808.007812" xlink:href="#TimesNewRomanPSMT-30"/>
     <use x="1858.007812" xlink:href="#TimesNewRomanPSMT-32"/>
     <use x="1908.007812" xlink:href="#TimesNewRomanPSMT-34"/>
     <use x="1958.007812" xlink:href="#TimesNewRomanPSMT-20"/>
     <use x="1983.007812" xlink:href="#TimesNewRomanPSMT-62"/>
     <use x="2033.007812" xlink:href="#TimesNewRomanPSMT-79"/>
     <use x="2083.007812" xlink:href="#TimesNewRomanPSMT-74"/>
     <use x="2110.791016" xlink:href="#TimesNewRomanPSMT-65"/>
    </g>
   </g>
   <g id="legend_1">
    <g id="patch_7">
     <path d="M 519.594687 159.441563 
L 1108.16 159.441563 
Q 1112.56 159.441563 1112.56 155.041563 
L 1112.56 68.2 
Q 1112.56 63.8 1108.16 63.8 
L 519.594687 63.8 
Q 515.194687 63.8 515.194687 68.2 
L 515.194687 155.041563 
Q 515.194687 159.441563 519.594687 159.441563 
z
" style="fill:#ffffff;opacity:0.8;stroke:#cccccc;stroke-linejoin:miter;"/>
    </g>
    <g id="LineCollection_4">
     <path d="M 545.994687 91.3 
L 545.994687 69.3 
" style="fill:none;stroke:#9999ff;stroke-width:2;"/>
    </g>
    <g id="line2d_38">
     <g>
      <use style="fill:#9999ff;stroke:#9999ff;" x="545.994687" xlink:href="#ma7e58fd21f" y="91.3"/>
     </g>
    </g>
    <g id="line2d_39">
     <g>
      <use style="fill:#9999ff;stroke:#9999ff;" x="545.994687" xlink:href="#ma7e58fd21f" y="69.3"/>
     </g>
    </g>
    <g id="line2d_40">
     <path d="M 523.994687 80.3 
L 567.994687 80.3 
" style="fill:none;stroke:#0000ff;stroke-dasharray:4.4,4.4;stroke-dashoffset:0;stroke-width:4;"/>
    </g>
    <g id="line2d_41">
     <g>
      <use style="fill:#0000ff;stroke:#0000ff;stroke-linejoin:miter;" x="545.994687" xlink:href="#m003e7ab0db" y="80.3"/>
     </g>
    </g>
    <g id="text_18">
     <!-- Chrome_59d0743_wasm_o2 -->
     <defs>
      <path d="M 60.203125 67.71875 
L 61.71875 45.21875 
L 60.203125 45.21875 
Q 57.171875 55.328125 51.5625 59.765625 
Q 45.953125 64.203125 38.09375 64.203125 
Q 31.5 64.203125 26.171875 60.859375 
Q 20.84375 57.515625 17.796875 50.1875 
Q 14.75 42.875 14.75 31.984375 
Q 14.75 23 17.625 16.40625 
Q 20.515625 9.8125 26.296875 6.296875 
Q 32.078125 2.78125 39.5 2.78125 
Q 45.953125 2.78125 50.875 5.53125 
Q 55.8125 8.296875 61.71875 16.5 
L 63.234375 15.53125 
Q 58.25 6.6875 51.609375 2.578125 
Q 44.96875 -1.515625 35.84375 -1.515625 
Q 19.390625 -1.515625 10.359375 10.6875 
Q 3.609375 19.78125 3.609375 32.078125 
Q 3.609375 42 8.046875 50.296875 
Q 12.5 58.59375 20.28125 63.15625 
Q 28.078125 67.71875 37.3125 67.71875 
Q 44.484375 67.71875 51.46875 64.203125 
Q 53.515625 63.140625 54.390625 63.140625 
Q 55.71875 63.140625 56.6875 64.0625 
Q 57.953125 65.375 58.5 67.71875 
z
" id="TimesNewRomanPSMT-43"/>
      <path d="M 50.875 -21.578125 
L -0.828125 -21.578125 
L -0.828125 -17.484375 
L 50.875 -17.484375 
z
" id="TimesNewRomanPSMT-5f"/>
      <path d="M 5.28125 -1.375 
L 5.28125 0.4375 
Q 11.625 0.53125 17.09375 3.390625 
Q 22.5625 6.25 27.65625 13.375 
Q 32.765625 20.515625 34.765625 29.046875 
Q 27.09375 24.125 20.90625 24.125 
Q 13.921875 24.125 8.9375 29.515625 
Q 3.953125 34.90625 3.953125 43.84375 
Q 3.953125 52.546875 8.9375 59.328125 
Q 14.9375 67.578125 24.609375 67.578125 
Q 32.765625 67.578125 38.578125 60.84375 
Q 45.703125 52.484375 45.703125 40.234375 
Q 45.703125 29.203125 40.28125 19.65625 
Q 34.859375 10.109375 25.203125 3.8125 
Q 17.328125 -1.375 8.0625 -1.375 
z
M 35.546875 32.671875 
Q 36.421875 39.015625 36.421875 42.828125 
Q 36.421875 47.5625 34.8125 53.046875 
Q 33.203125 58.546875 30.25 61.46875 
Q 27.296875 64.40625 23.53125 64.40625 
Q 19.1875 64.40625 15.90625 60.5 
Q 12.640625 56.59375 12.640625 48.875 
Q 12.640625 38.578125 17 32.765625 
Q 20.171875 28.5625 24.8125 28.5625 
Q 27.046875 28.5625 30.125 29.640625 
Q 33.203125 30.71875 35.546875 32.671875 
" id="TimesNewRomanPSMT-39"/>
      <path d="M 10.0625 66.21875 
L 45.5625 66.21875 
L 45.5625 64.359375 
L 23.484375 -1.375 
L 18.015625 -1.375 
L 37.796875 58.25 
L 19.578125 58.25 
Q 14.0625 58.25 11.71875 56.9375 
Q 7.625 54.6875 5.125 50 
L 3.71875 50.53125 
z
" id="TimesNewRomanPSMT-37"/>
     </defs>
     <g transform="translate(585.594687 88)scale(0.22 -0.22)">
      <use xlink:href="#TimesNewRomanPSMT-43"/>
      <use x="66.699219" xlink:href="#TimesNewRomanPSMT-68"/>
      <use x="116.699219" xlink:href="#TimesNewRomanPSMT-72"/>
      <use x="150" xlink:href="#TimesNewRomanPSMT-6f"/>
      <use x="200" xlink:href="#TimesNewRomanPSMT-6d"/>
      <use x="277.783203" xlink:href="#TimesNewRomanPSMT-65"/>
      <use x="322.167969" xlink:href="#TimesNewRomanPSMT-5f"/>
      <use x="372.167969" xlink:href="#TimesNewRomanPSMT-35"/>
      <use x="422.167969" xlink:href="#TimesNewRomanPSMT-39"/>
      <use x="472.167969" xlink:href="#TimesNewRomanPSMT-64"/>
      <use x="522.167969" xlink:href="#TimesNewRomanPSMT-30"/>
      <use x="572.167969" xlink:href="#TimesNewRomanPSMT-37"/>
      <use x="622.167969" xlink:href="#TimesNewRomanPSMT-34"/>
      <use x="672.167969" xlink:href="#TimesNewRomanPSMT-33"/>
      <use x="722.167969" xlink:href="#TimesNewRomanPSMT-5f"/>
      <use x="772.167969" xlink:href="#TimesNewRomanPSMT-77"/>
      <use x="844.384766" xlink:href="#TimesNewRomanPSMT-61"/>
      <use x="888.769531" xlink:href="#TimesNewRomanPSMT-73"/>
      <use x="927.685547" xlink:href="#TimesNewRomanPSMT-6d"/>
      <use x="1005.46875" xlink:href="#TimesNewRomanPSMT-5f"/>
      <use x="1055.46875" xlink:href="#TimesNewRomanPSMT-6f"/>
      <use x="1105.46875" xlink:href="#TimesNewRomanPSMT-32"/>
     </g>
    </g>
    <g id="LineCollection_5">
     <path d="M 545.994687 120.247187 
L 545.994687 98.247187 
" style="fill:none;stroke:#9999ff;stroke-width:2;"/>
    </g>
    <g id="line2d_42">
     <g>
      <use style="fill:#9999ff;stroke:#9999ff;" x="545.994687" xlink:href="#ma7e58fd21f" y="120.247187"/>
     </g>
    </g>
    <g id="line2d_43">
     <g>
      <use style="fill:#9999ff;stroke:#9999ff;" x="545.994687" xlink:href="#ma7e58fd21f" y="98.247187"/>
     </g>
    </g>
    <g id="line2d_44">
     <path d="M 523.994687 109.247187 
L 567.994687 109.247187 
" style="fill:none;stroke:#0000ff;stroke-dasharray:19.2,4.8,3.2,4.8;stroke-dashoffset:0;stroke-width:4;"/>
    </g>
    <g id="line2d_45">
     <g>
      <use style="fill:#0000ff;stroke:#0000ff;stroke-linejoin:miter;" x="545.994687" xlink:href="#m003e7ab0db" y="109.247187"/>
     </g>
    </g>
    <g id="text_19">
     <!-- Chrome_59d0743_wasm_o2_allow_memgrowth -->
     <g transform="translate(585.594687 116.947187)scale(0.22 -0.22)">
      <use xlink:href="#TimesNewRomanPSMT-43"/>
      <use x="66.699219" xlink:href="#TimesNewRomanPSMT-68"/>
      <use x="116.699219" xlink:href="#TimesNewRomanPSMT-72"/>
      <use x="150" xlink:href="#TimesNewRomanPSMT-6f"/>
      <use x="200" xlink:href="#TimesNewRomanPSMT-6d"/>
      <use x="277.783203" xlink:href="#TimesNewRomanPSMT-65"/>
      <use x="322.167969" xlink:href="#TimesNewRomanPSMT-5f"/>
      <use x="372.167969" xlink:href="#TimesNewRomanPSMT-35"/>
      <use x="422.167969" xlink:href="#TimesNewRomanPSMT-39"/>
      <use x="472.167969" xlink:href="#TimesNewRomanPSMT-64"/>
      <use x="522.167969" xlink:href="#TimesNewRomanPSMT-30"/>
      <use x="572.167969" xlink:href="#TimesNewRomanPSMT-37"/>
      <use x="622.167969" xlink:href="#TimesNewRomanPSMT-34"/>
      <use x="672.167969" xlink:href="#TimesNewRomanPSMT-33"/>
      <use x="722.167969" xlink:href="#TimesNewRomanPSMT-5f"/>
      <use x="772.167969" xlink:href="#TimesNewRomanPSMT-77"/>
      <use x="844.384766" xlink:href="#TimesNewRomanPSMT-61"/>
      <use x="888.769531" xlink:href="#TimesNewRomanPSMT-73"/>
      <use x="927.685547" xlink:href="#TimesNewRomanPSMT-6d"/>
      <use x="1005.46875" xlink:href="#TimesNewRomanPSMT-5f"/>
      <use x="1055.46875" xlink:href="#TimesNewRomanPSMT-6f"/>
      <use x="1105.46875" xlink:href="#TimesNewRomanPSMT-32"/>
      <use x="1155.46875" xlink:href="#TimesNewRomanPSMT-5f"/>
      <use x="1205.46875" xlink:href="#TimesNewRomanPSMT-61"/>
      <use x="1249.853516" xlink:href="#TimesNewRomanPSMT-6c"/>
      <use x="1277.636719" xlink:href="#TimesNewRomanPSMT-6c"/>
      <use x="1305.419922" xlink:href="#TimesNewRomanPSMT-6f"/>
      <use x="1355.419922" xlink:href="#TimesNewRomanPSMT-77"/>
      <use x="1427.636719" xlink:href="#TimesNewRomanPSMT-5f"/>
      <use x="1477.636719" xlink:href="#TimesNewRomanPSMT-6d"/>
      <use x="1555.419922" xlink:href="#TimesNewRomanPSMT-65"/>
      <use x="1599.804688" xlink:href="#TimesNewRomanPSMT-6d"/>
      <use x="1677.587891" xlink:href="#TimesNewRomanPSMT-67"/>
      <use x="1727.587891" xlink:href="#TimesNewRomanPSMT-72"/>
      <use x="1760.888672" xlink:href="#TimesNewRomanPSMT-6f"/>
      <use x="1810.888672" xlink:href="#TimesNewRomanPSMT-77"/>
      <use x="1883.105469" xlink:href="#TimesNewRomanPSMT-74"/>
      <use x="1910.888672" xlink:href="#TimesNewRomanPSMT-68"/>
     </g>
    </g>
    <g id="LineCollection_6">
     <path d="M 545.994687 149.194375 
L 545.994687 127.194375 
" style="fill:none;stroke:#9999ff;stroke-width:2;"/>
    </g>
    <g id="line2d_46">
     <g>
      <use style="fill:#9999ff;stroke:#9999ff;" x="545.994687" xlink:href="#ma7e58fd21f" y="149.194375"/>
     </g>
    </g>
    <g id="line2d_47">
     <g>
      <use style="fill:#9999ff;stroke:#9999ff;" x="545.994687" xlink:href="#ma7e58fd21f" y="127.194375"/>
     </g>
    </g>
    <g id="line2d_48">
     <path d="M 523.994687 138.194375 
L 567.994687 138.194375 
" style="fill:none;stroke:#0000ff;stroke-linecap:square;stroke-width:4;"/>
    </g>
    <g id="line2d_49">
     <g>
      <use style="fill:#0000ff;stroke:#0000ff;stroke-linejoin:miter;" x="545.994687" xlink:href="#m003e7ab0db" y="138.194375"/>
     </g>
    </g>
    <g id="text_20">
     <!-- Chrome_59d0743_wasm_o2_nodebug_allow_memgrowth -->
     <defs>
      <path d="M 42.328125 44.734375 
L 42.328125 17.625 
Q 42.328125 9.859375 42.6875 8.125 
Q 43.0625 6.390625 43.859375 5.703125 
Q 44.671875 5.03125 45.75 5.03125 
Q 47.265625 5.03125 49.171875 5.859375 
L 49.859375 4.15625 
L 36.46875 -1.375 
L 34.28125 -1.375 
L 34.28125 8.109375 
Q 28.515625 1.859375 25.484375 0.234375 
Q 22.46875 -1.375 19.09375 -1.375 
Q 15.328125 -1.375 12.5625 0.796875 
Q 9.8125 2.984375 8.734375 6.390625 
Q 7.671875 9.8125 7.671875 16.0625 
L 7.671875 36.03125 
Q 7.671875 39.203125 6.984375 40.421875 
Q 6.296875 41.65625 4.953125 42.3125 
Q 3.609375 42.96875 0.09375 42.921875 
L 0.09375 44.734375 
L 15.765625 44.734375 
L 15.765625 14.796875 
Q 15.765625 8.546875 17.9375 6.59375 
Q 20.125 4.640625 23.1875 4.640625 
Q 25.296875 4.640625 27.953125 5.953125 
Q 30.609375 7.28125 34.28125 10.984375 
L 34.28125 36.328125 
Q 34.28125 40.140625 32.890625 41.484375 
Q 31.5 42.828125 27.09375 42.921875 
L 27.09375 44.734375 
z
" id="TimesNewRomanPSMT-75"/>
     </defs>
     <g transform="translate(585.594687 145.894375)scale(0.22 -0.22)">
      <use xlink:href="#TimesNewRomanPSMT-43"/>
      <use x="66.699219" xlink:href="#TimesNewRomanPSMT-68"/>
      <use x="116.699219" xlink:href="#TimesNewRomanPSMT-72"/>
      <use x="150" xlink:href="#TimesNewRomanPSMT-6f"/>
      <use x="200" xlink:href="#TimesNewRomanPSMT-6d"/>
      <use x="277.783203" xlink:href="#TimesNewRomanPSMT-65"/>
      <use x="322.167969" xlink:href="#TimesNewRomanPSMT-5f"/>
      <use x="372.167969" xlink:href="#TimesNewRomanPSMT-35"/>
      <use x="422.167969" xlink:href="#TimesNewRomanPSMT-39"/>
      <use x="472.167969" xlink:href="#TimesNewRomanPSMT-64"/>
      <use x="522.167969" xlink:href="#TimesNewRomanPSMT-30"/>
      <use x="572.167969" xlink:href="#TimesNewRomanPSMT-37"/>
      <use x="622.167969" xlink:href="#TimesNewRomanPSMT-34"/>
      <use x="672.167969" xlink:href="#TimesNewRomanPSMT-33"/>
      <use x="722.167969" xlink:href="#TimesNewRomanPSMT-5f"/>
      <use x="772.167969" xlink:href="#TimesNewRomanPSMT-77"/>
      <use x="844.384766" xlink:href="#TimesNewRomanPSMT-61"/>
      <use x="888.769531" xlink:href="#TimesNewRomanPSMT-73"/>
      <use x="927.685547" xlink:href="#TimesNewRomanPSMT-6d"/>
      <use x="1005.46875" xlink:href="#TimesNewRomanPSMT-5f"/>
      <use x="1055.46875" xlink:href="#TimesNewRomanPSMT-6f"/>
      <use x="1105.46875" xlink:href="#TimesNewRomanPSMT-32"/>
      <use x="1155.46875" xlink:href="#TimesNewRomanPSMT-5f"/>
      <use x="1205.46875" xlink:href="#TimesNewRomanPSMT-6e"/>
      <use x="1255.46875" xlink:href="#TimesNewRomanPSMT-6f"/>
      <use x="1305.46875" xlink:href="#TimesNewRomanPSMT-64"/>
      <use x="1355.46875" xlink:href="#TimesNewRomanPSMT-65"/>
      <use x="1399.853516" xlink:href="#TimesNewRomanPSMT-62"/>
      <use x="1449.853516" xlink:href="#TimesNewRomanPSMT-75"/>
      <use x="1499.853516" xlink:href="#TimesNewRomanPSMT-67"/>
      <use x="1549.853516" xlink:href="#TimesNewRomanPSMT-5f"/>
      <use x="1599.853516" xlink:href="#TimesNewRomanPSMT-61"/>
      <use x="1644.238281" xlink:href="#TimesNewRomanPSMT-6c"/>
      <use x="1672.021484" xlink:href="#TimesNewRomanPSMT-6c"/>
      <use x="1699.804688" xlink:href="#TimesNewRomanPSMT-6f"/>
      <use x="1749.804688" xlink:href="#TimesNewRomanPSMT-77"/>
      <use x="1822.021484" xlink:href="#TimesNewRomanPSMT-5f"/>
      <use x="1872.021484" xlink:href="#TimesNewRomanPSMT-6d"/>
      <use x="1949.804688" xlink:href="#TimesNewRomanPSMT-65"/>
      <use x="1994.189453" xlink:href="#TimesNewRomanPSMT-6d"/>
      <use x="2071.972656" xlink:href="#TimesNewRomanPSMT-67"/>
      <use x="2121.972656" xlink:href="#TimesNewRomanPSMT-72"/>
      <use x="2155.273438" xlink:href="#TimesNewRomanPSMT-6f"/>
      <use x="2205.273438" xlink:href="#TimesNewRomanPSMT-77"/>
      <use x="2277.490234" xlink:href="#TimesNewRomanPSMT-74"/>
      <use x="2305.273438" xlink:href="#TimesNewRomanPSMT-68"/>
     </g>
    </g>
   </g>
  </g>
 </g>
 <defs>
  <clipPath id="pea12ce01f3">
   <rect height="443.08" width="1040.92" x="82.64" y="52.8"/>
  </clipPath>
 </defs>
</svg>
